<svg xmlns="http://www.w3.org/2000/svg" viewBox="0 0 481.32 139.55"><title>pemAsset 2</title><g id="Layer_2" data-name="Layer 2"><g id="Layer_1-2" data-name="Layer 1"><path d="M301.2,37.62h27.92c16,0,25.89,7.81,25.89,21.71C355,74.09,344.31,82,328.48,82H311.79V101.8H301.2ZM328.69,47h-16.9V72.7h16.9c9.52,0,15.51-3.85,15.51-12.94C344.2,51.31,338.11,47,328.69,47Z"/><path d="M403.44,74.52H371.13V92.38h38.08v9.41H360.55V37.62h48.67V47H371.13V65.53h32.31Z"/><path d="M470.74,60,450.41,81.15H448L427.52,60V101.8H416.93V37.62h3l29.2,30,29.42-30h2.78V101.8H470.74Z"/><polygon points="90.95 23.44 90.95 0.14 0 0.14 0 139.56 35.29 139.41 54.75 116.25 26.69 116.25 26.69 81.2 84.35 81.2 104.02 57.9 26.69 57.9 26.69 23.44 90.95 23.44"/><polygon points="173.23 26.12 149.6 0 63.95 0 63.75 23.3 143.41 23.3 61.36 120.49 45.48 139.41 180.46 139.41 180.46 116.11 97.41 116.11 173.23 26.12"/><polygon points="283.44 0 256.75 0 256.75 55.61 283.44 82.76 283.44 0"/><polygon points="256.75 68.11 249.06 59.82 248.65 59.4 249.06 59.82 193.62 0 162.55 0 215.72 58.95 158.76 139.41 191.03 139.41 234.44 79.67 256.75 104.36 256.75 139.41 283.44 139.41 283.44 95.25 252.65 63.69 256.75 68.11"/><rect x="276.44" y="115.31" width="73.61" height="24.1"/></g></g></svg>